<svg width="500" height="103" viewBox="0 0 500 103" fill="none" xmlns="http://www.w3.org/2000/svg">
<path d="M57.2524 101.528C44.6332 101.528 34.7348 97.2568 27.5528 88.7098C20.3708 80.1673 16.7754 67.761 16.7754 51.5C16.7754 43.3695 17.6941 36.2094 19.5404 30.0196C21.3823 23.8298 24.0501 18.6103 27.5528 14.3612C31.051 10.1121 35.309 6.89973 40.331 4.72865C45.3487 2.55756 50.9892 1.47202 57.2524 1.47202C65.6314 1.47202 72.6544 3.30193 78.3213 6.96176C83.9839 10.6216 88.4273 16.0449 91.6517 23.2316L78.5289 30.4361C76.8726 25.8192 74.3151 22.1461 70.8611 19.4167C67.407 16.6918 62.8708 15.3271 57.2524 15.3271C49.7922 15.3271 43.9441 17.8792 39.7082 22.9791C35.4724 28.0789 33.3522 35.1283 33.3522 44.1228V58.8684C33.3522 67.8674 35.468 74.9123 39.7082 80.0166C43.9441 85.1164 49.7922 87.6641 57.2524 87.6641C63.0563 87.6641 67.7736 86.1621 71.4132 83.1625C75.0484 80.1628 77.7427 76.3036 79.4962 71.5892L92.0669 79.2102C88.8425 86.2153 84.3328 91.6873 78.5289 95.6218C72.725 99.5564 65.6358 101.524 57.2524 101.524V101.528Z" fill="black"/>
<path d="M116.475 99.8621H100.865V3.13797H142.447C151.104 3.13797 157.919 5.7477 162.893 10.9672C167.866 16.1866 170.353 23.2803 170.353 32.2394C170.353 39.1691 168.763 44.9203 165.587 49.4929C162.411 54.0654 157.734 57.2778 151.563 59.1254L172.425 99.8665H155.017L135.676 60.7869H116.475V99.8665V99.8621ZM141.343 47.6186C145.3 47.6186 148.388 46.5863 150.6 44.5171C152.809 42.4479 153.918 39.4793 153.918 35.6156V28.996C153.918 25.1324 152.813 22.1682 150.6 20.099C148.392 18.0298 145.305 16.993 141.343 16.993H116.475V47.6186H141.343Z" fill="black"/>
<path d="M262.239 99.8621V3.13797H303.684C312.615 3.13797 319.523 5.76985 324.404 11.0381C329.284 16.3063 331.727 23.3734 331.727 32.2394C331.727 41.1054 329.284 48.1769 324.404 53.4407C319.523 58.7045 312.615 61.3408 303.684 61.3408H277.849V99.8665H262.239V99.8621ZM277.849 47.4813H302.716C306.674 47.4813 309.761 46.4533 311.974 44.393C314.183 42.3327 315.291 39.3818 315.291 35.5359V28.9429C315.291 25.097 314.187 22.146 311.974 20.0857C309.766 18.0254 306.678 16.9975 302.716 16.9975H277.849V47.4857V47.4813Z" fill="black"/>
<path d="M376.281 16.9931V99.8621H360.671V16.9931H332.747V3.13361H404.205V16.9931H376.281Z" fill="black"/>
<path d="M442.509 101.528C436.245 101.528 430.561 100.442 425.446 98.2713C420.335 96.1003 415.958 92.9145 412.323 88.7097C408.684 84.5093 405.874 79.2854 403.896 73.0513C401.912 66.8172 400.927 59.6349 400.927 51.5044C400.927 43.3739 401.917 36.1916 403.896 29.9575C405.874 23.7233 408.684 18.5039 412.323 14.299C415.958 10.0987 420.335 6.90849 425.446 4.73741C430.556 2.56632 436.241 1.48077 442.509 1.48077C448.776 1.48077 454.457 2.56632 459.571 4.73741C464.682 6.90849 469.055 10.0987 472.694 14.299C476.329 18.5039 479.139 23.7233 481.122 29.9575C483.101 36.1916 484.09 43.3783 484.09 51.5044C484.09 59.6304 483.101 66.8172 481.122 73.0513C479.139 79.2854 476.334 84.5093 472.694 88.7097C469.055 92.9145 464.682 96.1003 459.571 98.2713C454.461 100.442 448.772 101.528 442.509 101.528ZM442.509 87.6685C446.192 87.6685 449.576 87.0216 452.663 85.7233C455.746 84.4251 458.374 82.5465 460.539 80.0874C462.703 77.6283 464.381 74.6375 465.583 71.115C466.78 67.5881 467.381 63.6048 467.381 59.1519V43.848C467.381 39.3995 466.78 35.4118 465.583 31.8893C464.386 28.3624 462.703 25.3716 460.539 22.9169C458.374 20.4578 455.751 18.5836 452.663 17.281C449.576 15.9827 446.192 15.3314 442.509 15.3314C438.825 15.3314 435.327 15.9827 432.288 17.281C429.249 18.5792 426.647 20.4578 424.483 22.9169C422.319 25.376 420.636 28.3668 419.439 31.8893C418.242 35.4162 417.641 39.3995 417.641 43.848V59.1519C417.641 63.6048 418.237 67.5881 419.439 71.115C420.636 74.6419 422.314 77.6283 424.483 80.0874C426.647 82.5465 429.249 84.4207 432.288 85.7233C435.327 87.0216 438.732 87.6685 442.509 87.6685Z" fill="black"/>
<path d="M204.713 3.13797H188.891V99.8665H204.713V3.13797Z" fill="black"/>
<path d="M242.297 3.13797H226.475V99.8665H242.297V3.13797Z" fill="black"/>
<path d="M0.11499 38.0653V46.9435V64.9349H499.885V46.9435V38.0653H0.11499Z" fill="#604FED"/>
</svg>
